<svg width="315" height="46" viewBox="0 0 315 46" fill="none" xmlns="http://www.w3.org/2000/svg">
<path d="M0.280001 45V0.199997H6.872L39.256 36.872L38.616 37.448C38.4027 36.2533 38.232 34.9733 38.104 33.608C37.976 32.2427 37.848 30.8133 37.72 29.32C37.6347 27.784 37.5493 26.2267 37.464 24.648C37.4213 23.0267 37.3787 21.4053 37.336 19.784C37.336 18.1627 37.336 16.5413 37.336 14.92V0.199997H44.248V45H37.528L5.592 9.672L5.912 8.776C6.04 10.3547 6.168 11.848 6.296 13.256C6.424 14.6213 6.53067 15.944 6.616 17.224C6.744 18.4613 6.85067 19.6133 6.936 20.68C7.02133 21.7467 7.08533 22.7707 7.128 23.752C7.17067 24.6907 7.192 25.5653 7.192 26.376V45H0.280001ZM79.548 45.64C75.5373 45.64 71.9747 44.9147 68.86 43.464C65.7453 41.9707 63.3133 39.944 61.564 37.384C59.8147 34.7813 58.94 31.8373 58.94 28.552C58.94 25.8213 59.452 23.368 60.476 21.192C61.5 18.9733 62.9293 17.096 64.764 15.56C66.5987 13.9813 68.732 12.7653 71.164 11.912C73.596 11.0587 76.1987 10.632 78.972 10.632C81.4893 10.632 83.8573 11.0373 86.076 11.848C88.2947 12.6587 90.236 13.7893 91.9 15.24C93.564 16.6907 94.844 18.4187 95.74 20.424C96.636 22.3867 97.0627 24.5627 97.02 26.952L96.956 30.152H64.508L63.036 24.904H91.26L90.3 25.608V24.072C90.1293 22.6213 89.4893 21.3413 88.38 20.232C87.2707 19.1227 85.884 18.2693 84.22 17.672C82.5987 17.032 80.8493 16.712 78.972 16.712C76.3267 16.712 73.98 17.1173 71.932 17.928C69.884 18.696 68.284 19.9333 67.132 21.64C66.0227 23.304 65.468 25.4587 65.468 28.104C65.468 30.408 66.0867 32.4347 67.324 34.184C68.604 35.8907 70.3747 37.2133 72.636 38.152C74.94 39.0907 77.564 39.56 80.508 39.56C83.196 39.56 85.4787 39.1973 87.356 38.472C89.276 37.704 90.9827 36.7653 92.476 35.656L95.548 40.52C94.396 41.4587 92.9453 42.312 91.196 43.08C89.4893 43.848 87.612 44.4667 85.564 44.936C83.5587 45.4053 81.5533 45.64 79.548 45.64ZM139.796 45L126.676 30.408L125.524 29.128L109.716 11.4H118.932L130.836 25.544L131.924 26.824L148.756 45H139.796ZM109.076 45L124.436 27.336L128.724 31.624L117.716 45H109.076ZM132.308 28.936L128.532 24.328L139.284 11.4H147.988L132.308 28.936ZM168.963 45V1.736H175.555V45H168.963ZM159.811 17.8V11.4H186.243V17.8H159.811ZM237.086 45V6.856H221.982V0.199997H259.422V6.856H243.998V45H237.086ZM287.987 45L268.531 0.199997H276.403L287.795 27.144C288.136 28.04 288.541 29.0427 289.011 30.152C289.523 31.2613 290.013 32.4133 290.483 33.608C290.995 34.76 291.464 35.8907 291.891 37C292.36 38.0667 292.744 39.0693 293.043 40.008L291.187 40.072C291.571 38.92 292.04 37.6187 292.595 36.168C293.192 34.7173 293.789 33.224 294.387 31.688C295.027 30.1093 295.624 28.616 296.179 27.208L306.739 0.199997H314.867L295.603 45H287.987Z" fill="black"/>
</svg>
